<svg id="Layer_1" data-name="Layer 1" xmlns="http://www.w3.org/2000/svg" viewBox="0 0 502.42 355.82"><defs><style>.cls-1{fill:#20a1a7;}.cls-2{fill:#fefefe;}</style></defs><title>Danhostel_Logo</title><path class="cls-1" d="M103.68,257.67Q177.38,129,251.29,0L398.74,257.62a2.86,2.86,0,0,1-2.16.37q-36.57,0-73.14.06c-2,0-2.6-.4-2.59-2.52.11-15.74.09-31.47,0-47.2,0-1.81.41-2.43,2.29-2.32,2.85.17,5.71,0,9.09,0L321.41,195c-9.31-9.52-18.64-19-27.89-28.59-1.42-1.47-2.19-1.63-3.7-.05-12.17,12.7-24.44,25.31-36.67,38-.43.44-.82.93-1.56,1.79,3.18,0,6,.06,8.83,0,1.42-.05,2,.22,2,1.87q-.09,24.07,0,48.14c0,1.48-.35,2-1.93,2q-19.39-.12-38.79-.07c-1.5,0-1.79-.47-1.79-1.86q.09-15.18,0-30.37c0-1.44.27-1.79,1.79-1.58,7.24,1,14.5,1.85,21.76,2.75,1,.12,2,.18,3.5.31-6.65-13.43-13.12-26.47-19.58-39.52l.29-.33,10.76,6.37c-6.23-14.08-12.19-27.6-18.16-41.11l.4-.34,8,5.6-14.62-48-14,48,7.32-5.46.52.27-17.56,41,10.49-6.4.57.35-19.64,39.58c3.89-.47,7.33-.88,10.76-1.31,4.79-.59,9.58-1.16,14.35-1.82,1-.14,1.36.05,1.35,1.12q0,15.66,0,31.32c0,1.13-.38,1.56-1.48,1.43-.31,0-.62,0-.93,0h-100A3.4,3.4,0,0,1,103.68,257.67Z"/><path class="cls-1" d="M281.58,239.1c0-5.6.06-11.2,0-16.8,0-1.68.53-2.09,2.12-2.07,5.29.09,10.58.1,15.87,0,1.72,0,2.06.61,2.05,2.17q-.07,16.8,0,33.61c0,1.42-.26,2.07-1.91,2-5.44-.11-10.89-.09-16.34,0-1.52,0-1.79-.55-1.77-1.9C281.62,250.46,281.58,244.78,281.58,239.1Z"/><path class="cls-1" d="M502.42,354.33q-8.18,0-16.34,0c-8.59,0-17.19,0-25.78,0-1,0-1.26-.26-1.26-1.26q0-27.6,0-55.2c0-.93.21-1.22,1.18-1.2q4.47.11,9,0c1.05,0,1.33.23,1.33,1.31,0,14.65,0,29.29-.06,43.94,0,1.29.36,1.56,1.59,1.55,10.12-.05,20.25,0,30.38,0Z"/><path class="cls-1" d="M152.77,332.84V299.16c0-2.49,0-2.49,2.54-2.49s5.25,0,7.87,0c.73,0,1.06.11,1.06,1q0,27.86,0,55.7c0,.72-.17,1-.94,1q-3.15-.06-6.29,0a1.65,1.65,0,0,1-1.41-.76q-7.18-8.75-14.4-17.46l-14.34-17.35c-.14-.18-.3-.35-.59-.67v4.5c0,10.13,0,20.26.09,30.38,0,1-.19,1.41-1.31,1.38-3-.09-5.9-.08-8.84,0-1.06,0-1.35-.23-1.35-1.32.05-12.63,0-25.27,0-37.9,0-5.73,0-11.46,0-17.19,0-1,.29-1.29,1.28-1.25,1.85.08,3.71.07,5.57,0a2.17,2.17,0,0,1,1.94.89Q136.6,313.3,149.6,329Z"/><path class="cls-1" d="M290.32,325.48a43,43,0,0,1-2.48,15.67c-3.17,8.23-9.32,12.72-17.85,14.12a38.19,38.19,0,0,1-15-.43c-8-1.89-13.53-6.74-16.07-14.55a46.72,46.72,0,0,1,0-29.72c2.67-8.1,8.5-12.92,16.85-14.63a38,38,0,0,1,16,.11c9.46,2.11,14.92,8.25,17.25,17.44A48,48,0,0,1,290.32,325.48Z"/><path class="cls-1" d="M0,325.45c0-9.2,0-18.4,0-27.6,0-1,.23-1.21,1.19-1.2,7,.06,14.05,0,21.06.09a29.53,29.53,0,0,1,14.17,3.55,21.41,21.41,0,0,1,10.29,13.62,43.61,43.61,0,0,1,.21,22.37c-2.46,9.76-8.89,15.41-18.7,17.3a42.33,42.33,0,0,1-7.94.71c-6.34,0-12.67,0-19,0-1,0-1.27-.24-1.27-1.25C0,343.85,0,334.65,0,325.45Z"/><path class="cls-1" d="M404.31,325.45c0-9.2,0-18.41,0-27.61,0-1,.26-1.19,1.2-1.19q20.52,0,41.05,0c1,0,1.21.27,1.19,1.21q-.09,4.29,0,8.6c0,.9-.22,1.14-1.13,1.14-9.85,0-19.7,0-29.55-.05-1,0-1.37.21-1.34,1.31.08,3.11.07,6.22,0,9.32,0,1.05.33,1.25,1.3,1.25,8.52,0,17,0,25.55,0,1,0,1.41.17,1.37,1.3-.1,2.74-.09,5.49,0,8.23,0,1.14-.39,1.31-1.39,1.3-8.44,0-16.88,0-25.31-.05-1.24,0-1.56.32-1.53,1.54.09,3.51.07,7,0,10.53,0,1,.24,1.21,1.2,1.21,9.85,0,19.7,0,29.55-.05,1,0,1.3.21,1.28,1.25-.08,2.82-.08,5.65,0,8.47,0,1-.32,1.19-1.24,1.19q-20.46,0-40.93,0c-1,0-1.28-.22-1.28-1.25C404.33,343.86,404.31,334.66,404.31,325.45Z"/><path class="cls-1" d="M227,325.55c0,9.16,0,18.32,0,27.49,0,1-.25,1.29-1.26,1.27-3-.07-6.06-.06-9.09,0-.93,0-1.14-.29-1.14-1.17,0-7.19,0-14.37,0-21.56,0-1.1-.29-1.41-1.4-1.4q-11.88.06-23.74,0c-1,0-1.37.23-1.36,1.33.05,7.14,0,14.29.05,21.43,0,1.16-.36,1.4-1.43,1.37q-4.35-.1-8.72,0c-1,0-1.35-.22-1.35-1.32,0-12,0-24,0-36,0-6.38,0-12.76,0-19.13,0-1,.3-1.27,1.29-1.25,3,.07,6.05.06,9.08,0,.93,0,1.13.27,1.13,1.16,0,6.74,0,13.48-.05,20.22,0,1.11.29,1.41,1.4,1.4q11.88-.07,23.74,0c1,0,1.37-.23,1.36-1.32,0-6.7,0-13.4,0-20.1,0-1,.16-1.4,1.3-1.37,3,.1,6,.08,9,0,1.06,0,1.24.32,1.24,1.29C226.94,307.14,227,316.35,227,325.55Z"/><path class="cls-1" d="M341.37,303.48c0,1.41-.07,2.83,0,4.23.07,1.06-.29,1.07-1.14.81a63.41,63.41,0,0,0-20.46-2.28,18.76,18.76,0,0,0-6.86,1.28,5.83,5.83,0,0,0-3.7,4.58c-.49,2.77.52,4.64,3.15,5.64a30.19,30.19,0,0,0,7.82,1.47,60.46,60.46,0,0,1,13.54,2.39c5.91,2,9.55,5.78,10.14,12.19.55,6.09-.49,11.67-5.2,16a21.4,21.4,0,0,1-10.21,5,51.38,51.38,0,0,1-17.92.39,70.23,70.23,0,0,1-10.45-2,1.35,1.35,0,0,1-1.18-1.57c.07-2.95,0-5.9,0-8.84,0-.72.11-.86.87-.65a67.1,67.1,0,0,0,22.6,2.47,16.78,16.78,0,0,0,6.08-1.42,6.75,6.75,0,0,0,4.08-7.15,5.13,5.13,0,0,0-3.49-4.52,30.7,30.7,0,0,0-8.63-1.67c-4.7-.46-9.39-1-13.85-2.67-5.77-2.19-8.41-5.94-8.62-12.11-.18-5,.72-9.58,4.17-13.38a18.42,18.42,0,0,1,10.64-5.57A56.68,56.68,0,0,1,340,297.63a1.62,1.62,0,0,1,1.37,2C341.28,300.89,341.37,302.18,341.37,303.48Z"/><path class="cls-1" d="M78.58,341.34c-3.27,0-6.54,0-9.81,0a1.29,1.29,0,0,0-1.47,1c-1.32,3.64-2.73,7.24-4,10.88a1.37,1.37,0,0,1-1.56,1.08c-3.38-.05-6.78-.07-10.16,0-1.14,0-1.11-.3-.75-1.19Q61,328.39,71.18,303.63c1-2.53,2.11-5.05,3.1-7.6a1.1,1.1,0,0,1,1.25-.82c2.06,0,4.12.06,6.17,0a1.31,1.31,0,0,1,1.48,1q10,24.38,20,48.73l3.36,8.15c.49,1.2.48,1.21-.87,1.21-3.35,0-6.7,0-10,0a1.3,1.3,0,0,1-1.49-1c-1.35-3.66-2.82-7.29-4.18-10.95a1.32,1.32,0,0,0-1.47-1C85.2,341.37,81.89,341.34,78.58,341.34Z"/><path class="cls-1" d="M372.14,296.67c7.51,0,15,0,22.52,0,.93,0,1.22.22,1.2,1.19-.07,2.86-.07,5.73,0,8.59,0,1-.32,1.17-1.22,1.16-5.09,0-10.17,0-15.25,0-1.09,0-1.41.24-1.41,1.37,0,14.65,0,29.3.06,43.94,0,1.18-.32,1.49-1.48,1.46q-4.6-.13-9.2,0c-1.12,0-1.31-.35-1.3-1.37,0-14.64,0-29.29.05-43.94,0-1.13-.22-1.49-1.43-1.47-5.08.08-10.16,0-15.25.06-1,0-1.21-.28-1.19-1.22.06-2.86.06-5.73,0-8.59,0-.92.25-1.14,1.14-1.14C357,296.69,364.56,296.67,372.14,296.67Z"/><path class="cls-2" d="M248.26,325.6a32.19,32.19,0,0,1,1.26-10.39c1.73-5.33,5.62-8.35,11.19-8.88a24,24,0,0,1,7.57.35c5.29,1.2,8.34,4.69,9.54,9.82a38.86,38.86,0,0,1,0,17.85c-1.53,6.49-5.64,9.84-12.31,10.33a23.5,23.5,0,0,1-6.85-.39c-5.48-1.23-8.39-4.9-9.63-10.16A35.92,35.92,0,0,1,248.26,325.6Z"/><path class="cls-2" d="M11.37,325.53c0-5.61,0-11.22,0-16.83,0-.88.19-1.18,1.12-1.15,3.67.14,7.35-.2,11,.21,7.49.82,11.7,4.78,12.84,12.21a32.35,32.35,0,0,1-.4,12.85c-1.54,6.19-5.76,9.74-12.14,10.38-3.86.39-7.74.13-11.61.24-.93,0-.79-.53-.79-1.09Z"/><path class="cls-2" d="M85.76,331.51H71.52l7.17-18.8C81.1,319.12,83.42,325.27,85.76,331.51Z"/></svg>