<svg id="Layer_1" data-name="Layer 1" xmlns="http://www.w3.org/2000/svg" viewBox="0 0 295.06 258.05"><defs><style>.cls-1{fill:#20a1a7;}</style></defs><title>Danhostel_Trekant</title><path class="cls-1" d="M0,257.67,147.61,0q73.95,129.18,147.45,257.62a2.86,2.86,0,0,1-2.16.37q-36.57,0-73.14.06c-2,0-2.6-.4-2.58-2.52q.15-23.61,0-47.2c0-1.81.41-2.43,2.29-2.32,2.85.17,5.71,0,9.09,0L217.73,195c-9.3-9.52-18.64-19-27.89-28.59-1.42-1.47-2.18-1.63-3.7-.05-12.17,12.7-24.44,25.31-36.67,38-.43.44-.81.93-1.56,1.79,3.19,0,6,.06,8.83,0,1.42-.05,2,.22,2,1.87q-.1,24.07,0,48.14c0,1.48-.36,2-1.94,2q-19.4-.12-38.79-.07c-1.49,0-1.79-.47-1.78-1.86q.08-15.18,0-30.37c0-1.44.27-1.79,1.79-1.58,7.24,1,14.5,1.85,21.76,2.75,1,.12,2,.18,3.5.31l-19.58-39.52.29-.33,10.76,6.37-18.16-41.11.4-.34,8,5.6-14.62-48-14,48,7.33-5.46.51.27-17.56,41,10.5-6.4.56.35L78.15,227.26c3.89-.47,7.33-.88,10.76-1.31,4.79-.59,9.58-1.16,14.36-1.82,1-.14,1.35.05,1.35,1.12q-.06,15.66,0,31.32c0,1.13-.39,1.56-1.49,1.43-.3,0-.62,0-.93,0H2.19A3.4,3.4,0,0,1,0,257.67Z"/><path class="cls-1" d="M177.9,239.1c0-5.6.07-11.2,0-16.8,0-1.68.52-2.09,2.12-2.07,5.28.09,10.58.1,15.86,0,1.72,0,2.06.61,2.06,2.17q-.09,16.8,0,33.61c0,1.42-.25,2.07-1.91,2-5.44-.11-10.89-.09-16.33,0-1.52,0-1.8-.55-1.78-1.9C177.94,250.46,177.9,244.78,177.9,239.1Z"/></svg>